<svg width="212" height="134" viewBox="0 0 212 134" fill="none" xmlns="http://www.w3.org/2000/svg">
<g clip-path="url(#clip0_1710_33817)">
<path d="M202.858 0C152.216 0 178.393 95.5486 118.557 95.5486H0V0H202.858Z" fill="white"/>
<path d="M118.557 95.5486C178.393 95.5486 152.216 0 202.858 0C253.5 0 315 0 315 0H0V120V95.5486C0 95.5486 58.7211 95.5486 118.557 95.5486Z" stroke="white"/>
<rect x="10" y="2" width="133" height="76" rx="38" fill="black"/>
<path d="M59.1359 32.7522L59.525 45.7606L76.6608 33.0398L59.1359 32.7522ZM58.3239 31.2974L59.0006 27.9988L59.1021 31.179L80.1963 27.8297L84.4253 33.3104L53.5029 54.7768L58.0364 32.7353L50.1366 32.6L58.3239 31.2974ZM93.4848 47.9089L73.4563 51.7658L69.2273 46.285L97.4939 26.4087L99.3546 31.4328L95.7346 33.5642L94.7535 32.7691L76.9917 46.5556L93.5524 47.4184L94.1445 43.46L87.9533 42.665L100.86 38.4191L92.3683 55.4703L93.4848 47.9089Z" fill="white"/>
<path d="M43.1432 94.5273C11.6981 95.4807 -0.0859375 103.851 -0.0859375 134.366V94.5273H43.1432Z" fill="white" stroke="white" stroke-width="1.69526"/>
</g>
<defs>
<clipPath id="clip0_1710_33817">
<rect width="212" height="134" fill="white"/>
</clipPath>
</defs>
</svg>
